<svg width="1024" height="500" viewBox="0 0 1024 500" xmlns="http://www.w3.org/2000/svg">
  <defs>
    <linearGradient id="grad1" x1="0%" y1="0%" x2="100%" y2="100%">
      <stop offset="0%" style="stop-color:#16213e;stop-opacity:1" />
      <stop offset="100%" style="stop-color:#0f1020;stop-opacity:1" />
    </linearGradient>
    <filter id="glow">
      <feGaussianBlur stdDeviation="4.5" result="coloredBlur"/>
      <feMerge>
        <feMergeNode in="coloredBlur"/>
        <feMergeNode in="SourceGraphic"/>
      </feMerge>
    </filter>
  </defs>
  
  <!-- Background -->
  <rect width="1024" height="500" fill="url(#grad1)"/>
  
  <!-- Decorative Abstract Shapes -->
  <circle cx="100" cy="400" r="250" fill="#e83a93" fill-opacity="0.03"/>
  <circle cx="924" cy="100" r="300" fill="#4f46e5" fill-opacity="0.03"/>
  
  <!-- Content Container (Centered) -->
  <g transform="translate(512, 230)">
    
    <!-- Icon/Logo Graphic -->
    <g transform="translate(-60, -100) scale(5)">
      <path fill="#e83a93" fill-rule="evenodd" d="M9.315 7.584C12.195 3.883 16.695 1.5 21.75 1.5a.75.75 0 01.75.75c0 5.056-2.383 9.555-6.084 12.436h.003c-.384.32-.78.613-1.183.882l-2.277 1.66c-1.775 1.3-4.343 1.3-6.118 0l-2.277-1.66a13.926 13.926 0 01-1.183-.882C-2.383 11.805 0 7.306 0 2.25a.75.75 0 01.75-.75c5.055 0 9.555 2.383 12.436 6.084.292.375.57.769.832 1.183.263-.414.54-.808.832-1.183z" clip-rule="evenodd" filter="url(#glow)" />
    </g>

    <!-- App Name -->
    <text x="0" y="60" font-family="'Segoe UI', Roboto, Helvetica, Arial, sans-serif" font-weight="800" font-size="72" fill="white" text-anchor="middle" letter-spacing="-1">
      Equipe Certa
    </text>
    
    <!-- Tagline -->
    <text x="0" y="110" font-family="'Segoe UI', Roboto, Helvetica, Arial, sans-serif" font-weight="400" font-size="24" fill="#a0a0b0" text-anchor="middle" letter-spacing="3" text-transform="uppercase">
      Gestão de Eventos e Promoters
    </text>
  </g>
</svg>