<svg width="512" height="512" viewBox="0 0 512 512" xmlns="http://www.w3.org/2000/svg">
  <rect width="512" height="512" fill="#1a1a2e"/>
  <g transform="translate(64, 64) scale(16)">
    <path fill="#e83a93" fill-rule="evenodd" d="M9.315 7.584C12.195 3.883 16.695 1.5 21.75 1.5a.75.75 0 01.75.75c0 5.056-2.383 9.555-6.084 12.436h.003c-.384.32-.78.613-1.183.882l-2.277 1.66c-1.775 1.3-4.343 1.3-6.118 0l-2.277-1.66a13.926 13.926 0 01-1.183-.882C-2.383 11.805 0 7.306 0 2.25a.75.75 0 01.75-.75c5.055 0 9.555 2.383 12.436 6.084.292.375.57.769.832 1.183.263-.414.54-.808.832-1.183z" clip-rule="evenodd" />
  </g>
</svg>